<?xml version="1.0" standalone="no"?>
<!DOCTYPE svg PUBLIC "-//W3C//DTD SVG 20010904//EN"
 "http://www.w3.org/TR/2001/REC-SVG-20010904/DTD/svg10.dtd">
<svg version="1.0" xmlns="http://www.w3.org/2000/svg"
 viewBox="0 0 2600.000000 2600.000000"
 preserveAspectRatio="xMidYMid meet">
<metadata>
Created by potrace 1.15, written by Peter Selinger 2001-2017
</metadata>
<g transform="translate(0.000000,2600.000000) scale(0.100000,-0.100000)"
fill="#000000" stroke="none">
<path d="M6360 22519 c-1361 -108 -2528 -994 -2964 -2249 -173 -496 -229 -995
-170 -1505 125 -1068 749 -2074 1664 -2680 145 -96 307 -191 393 -231 20 -10
37 -21 37 -24 0 -4 -45 -99 -99 -211 -472 -972 -748 -2035 -826 -3174 l-7 -99
-72 -65 c-913 -831 -1457 -1804 -1616 -2886 -88 -601 -52 -1219 99 -1737 145
-494 388 -897 763 -1264 284 -279 598 -494 1020 -699 1135 -551 2769 -844
5303 -950 1684 -70 4689 -73 6430 -5 3228 126 5108 563 6210 1446 142 114 369
341 475 474 334 421 543 921 624 1495 52 366 49 850 -8 1245 -92 641 -341
1279 -720 1845 -211 317 -394 535 -716 855 l-256 256 -13 159 c-83 1108 -362
2153 -842 3154 -44 90 -78 165 -77 166 2 1 57 30 123 65 711 373 1320 1018
1660 1760 239 523 347 1040 332 1590 -7 219 -22 359 -63 564 -290 1453 -1488
2530 -2999 2698 -146 16 -531 16 -675 -1 -670 -76 -1257 -319 -1770 -735 -101
-81 -334 -310 -429 -421 -256 -297 -471 -656 -621 -1035 -45 -113 -112 -318
-136 -412 l-16 -66 -170 59 c-1614 562 -3490 659 -5198 268 -320 -73 -721
-189 -997 -288 l-112 -40 -11 42 c-68 267 -199 598 -333 847 -81 149 -252 406
-363 545 -176 219 -456 481 -699 652 -442 311 -973 513 -1524 578 -159 19
-481 27 -631 14z m13721 -1278 c687 -125 1277 -564 1570 -1167 289 -596 276
-1300 -36 -1929 -153 -311 -306 -515 -569 -762 -302 -284 -660 -480 -1080
-592 -168 -45 -244 -86 -341 -185 -93 -93 -134 -166 -166 -296 -43 -170 -12
-327 102 -512 280 -459 487 -873 641 -1283 203 -540 351 -1147 422 -1730 25
-206 36 -332 51 -595 22 -408 54 -477 332 -710 261 -219 527 -497 712 -745
479 -639 714 -1353 688 -2085 -16 -435 -115 -773 -316 -1071 -457 -680 -1417
-1096 -3096 -1343 -951 -139 -2019 -216 -3725 -267 -555 -16 -2940 -23 -3645
-10 -1753 32 -2928 101 -3965 232 -2159 271 -3256 797 -3615 1734 -67 176
-101 326 -126 555 -15 136 -6 538 16 690 73 523 270 1012 590 1470 215 306
462 570 803 859 64 54 129 112 143 127 73 79 141 229 153 334 3 30 11 147 16
260 11 219 30 441 55 635 43 331 137 799 212 1047 l26 86 106 6 c367 22 482
30 701 52 3055 304 5528 1802 6184 3747 134 397 196 850 165 1199 -13 148 -13
157 3 162 49 12 653 -19 963 -50 833 -83 1704 -320 2464 -669 194 -89 250
-107 357 -113 251 -13 484 120 592 339 54 109 61 142 72 339 12 200 33 359 66
504 115 503 389 964 759 1274 308 259 687 426 1091 481 123 17 493 6 625 -18z"/>
<path d="M10200 13475 c-297 -67 -519 -271 -606 -560 -24 -78 -27 -107 -27
-220 0 -113 3 -142 27 -220 34 -111 83 -204 150 -283 111 -130 232 -210 391
-258 78 -24 107 -27 220 -27 113 0 142 3 220 27 272 82 475 290 551 566 28 99
26 300 -4 403 -79 275 -282 479 -554 558 -96 27 -277 34 -368 14z"/>
<path d="M15825 13480 c-161 -30 -302 -105 -426 -229 -148 -148 -217 -304
-226 -512 -7 -136 6 -221 48 -330 96 -249 317 -435 583 -490 50 -10 120 -19
156 -19 318 0 624 211 739 509 42 109 55 194 48 330 -9 208 -78 364 -226 512
-155 155 -320 228 -531 234 -63 2 -137 0 -165 -5z"/>
<path d="M12115 10148 c-52 -45 -53 -174 -4 -321 74 -222 293 -452 546 -571
l61 -29 -43 -53 c-24 -29 -60 -83 -80 -121 -95 -174 -134 -230 -215 -313 -171
-174 -375 -260 -615 -260 -110 0 -205 22 -300 69 -101 50 -162 111 -220 216
-99 182 -222 284 -407 335 -255 71 -539 -40 -687 -269 -121 -187 -128 -429
-20 -643 165 -327 429 -588 767 -757 237 -119 462 -179 751 -202 492 -39 1030
132 1427 453 l81 65 74 -59 c528 -422 1223 -569 1848 -389 492 142 877 448
1095 870 61 118 86 213 86 326 0 177 -57 313 -185 441 -135 134 -279 190 -470
181 -228 -11 -415 -132 -526 -340 -108 -203 -286 -297 -561 -297 -131 0 -210
16 -313 64 -198 92 -328 223 -460 466 -31 58 -76 130 -100 161 l-44 56 52 24
c162 75 357 242 456 390 111 165 161 368 116 474 -33 81 -96 69 -395 -75 -356
-171 -555 -220 -787 -191 -169 21 -297 65 -599 209 -250 119 -284 128 -329 90z"/>
</g>
</svg>
